<?xml version="1.0" standalone="no"?>
<!DOCTYPE svg PUBLIC "-//W3C//DTD SVG 20010904//EN"
	"http://www.w3.org/TR/2001/REC-SVG-20010904/DTD/svg10.dtd">
<svg version="1.0" xmlns="http://www.w3.org/2000/svg"
	width="700.000000pt" height="390.000000pt" viewBox="0 0 700.000000 390.000000"
	preserveAspectRatio="xMidYMid meet">
	<metadata>
		Created by potrace 1.13, written by Peter Selinger 2001-2015
	</metadata>
	<g transform="translate(0.000000,390.000000) scale(0.100000,-0.100000)"
		fill="#000000" stroke="none">
		<path d="M2052 3709 c-65 -26 -146 -102 -174 -166 -33 -73 -36 -183 -7 -258
55 -147 218 -237 371 -206 210 44 324 270 235 464 -29 63 -92 128 -155 159
-67 33 -196 36 -270 7z m204 -134 c36 -24 64 -74 64 -118 0 -46 -9 -64 -66
-134 -25 -30 -50 -74 -56 -99 -7 -24 -15 -44 -19 -44 -4 0 -14 21 -23 46 -9
26 -35 72 -58 102 -53 71 -70 119 -58 163 26 91 138 135 216 84z"/>
		<path d="M2153 3519 c-46 -17 -56 -73 -19 -108 49 -46 130 3 109 65 -11 33
-57 56 -90 43z"/>
		<path d="M1736 3434 c-22 -21 -20 -49 3 -71 11 -10 25 -41 31 -68 34 -153 187
-294 338 -312 l52 -6 0 -359 c0 -217 -4 -357 -9 -353 -5 3 -2 -13 6 -35 9 -22
18 -39 19 -37 11 10 33 78 25 72 -8 -4 -11 104 -11 353 l0 359 55 6 c77 8 174
58 235 123 54 57 110 162 110 207 0 15 9 35 20 44 47 40 5 112 -49 84 -25 -14
-30 -68 -6 -77 20 -8 19 -33 -5 -101 -57 -162 -231 -274 -402 -260 -91 8 -182
50 -247 115 -54 54 -81 100 -104 179 -13 45 -14 53 -1 64 21 17 18 66 -5 79
-27 14 -37 13 -55 -6z m49 -34 c0 -8 -8 -16 -17 -18 -13 -2 -18 3 -18 18 0 15
5 20 18 18 9 -2 17 -10 17 -18z m823 3 c5 -17 -26 -29 -40 -15 -6 6 -7 15 -3
22 9 14 37 9 43 -7z"/>
		<path d="M3673 3262 c-13 -13 -46 -22 -115 -30 -480 -58 -888 -458 -958 -940
-19 -129 -8 -345 23 -464 44 -165 137 -338 252 -466 l48 -53 -98 -99 -98 -99
-44 26 c-52 30 -147 41 -209 24 -58 -16 -118 -63 -151 -118 -25 -42 -28 -58
-28 -133 0 -75 3 -91 28 -133 53 -90 141 -133 254 -124 107 8 197 81 224 181
17 64 6 157 -26 212 l-27 46 97 98 97 97 88 -66 c344 -258 791 -303 1175 -117
79 38 168 96 258 168 l28 22 100 -101 101 -100 -27 -47 c-37 -63 -45 -157 -20
-223 36 -93 118 -157 217 -169 99 -12 199 37 252 122 23 36 30 61 34 118 5 89
-21 158 -80 212 -56 50 -101 67 -180 66 -55 0 -77 -5 -122 -30 l-54 -29 -100
101 -101 101 50 59 c151 178 240 378 270 603 6 48 18 95 26 105 8 9 13 29 11
45 -6 52 -88 41 -88 -12 0 -12 7 -29 16 -36 23 -19 13 -135 -21 -254 -87 -306
-291 -553 -570 -691 -306 -151 -623 -159 -934 -26 -223 97 -422 283 -535 502
-92 179 -121 303 -120 515 1 139 4 173 27 257 54 204 148 368 292 513 175 174
386 279 634 315 72 11 84 11 100 -4 50 -45 123 11 75 58 -21 21 -49 20 -71 -2z
m55 -29 c-2 -10 -10 -18 -18 -18 -8 0 -16 8 -18 18 -2 12 3 17 18 17 15 0 20
-5 18 -17z m1119 -1109 c8 -20 -17 -36 -34 -22 -10 8 -10 14 -2 24 15 18 28
18 36 -2z m-2181 -1009 c165 -96 159 -329 -10 -418 -56 -29 -155 -30 -211 0
-85 45 -129 117 -130 213 0 53 5 73 28 112 70 120 209 160 323 93z m2319 16
c51 -23 118 -98 133 -149 33 -110 -13 -219 -117 -276 -156 -84 -345 30 -345
209 0 97 64 188 155 221 50 18 128 16 174 -5z"/>
		<path d="M2465 1083 c-71 -37 -105 -94 -105 -175 0 -64 23 -111 74 -152 30
-25 48 -31 100 -34 122 -8 206 68 206 188 0 113 -79 190 -192 190 -29 -1 -66
-8 -83 -17z m35 -87 c1 -6 8 1 16 17 16 30 41 38 29 10 -4 -10 -9 -23 -12 -30
-3 -8 13 -13 54 -15 l58 -3 3 -68 c3 -61 0 -70 -20 -87 -14 -11 -27 -15 -32
-9 -15 13 -84 11 -88 -3 -3 -8 -14 -2 -31 16 -22 23 -27 39 -27 79 0 32 6 57
16 68 12 13 13 22 5 37 -6 11 -7 22 -3 26 7 8 32 -21 32 -38z"/>
		<path d="M2490 895 l0 -35 60 0 60 0 0 35 0 35 -60 0 -60 0 0 -35z"/>
		<path d="M4826 1095 c-76 -27 -126 -98 -126 -178 0 -61 14 -95 58 -140 117
-120 322 -37 322 130 0 30 -6 68 -14 86 -25 62 -113 118 -181 117 -11 -1 -37
-7 -59 -15z m151 -97 c27 -25 29 -41 8 -58 -8 -7 -15 -22 -15 -34 0 -29 -35
-66 -62 -66 -12 0 -32 -9 -44 -21 l-22 -21 -33 30 -34 30 23 24 c12 14 22 34
22 46 0 29 34 62 64 62 13 0 29 7 36 15 17 20 30 19 57 -7z"/>
		<path d="M4862 954 c-12 -8 -22 -25 -22 -38 0 -26 28 -56 53 -56 21 0 57 35
57 55 0 18 -35 55 -53 55 -7 0 -23 -7 -35 -16z m68 -13 c0 -6 -4 -13 -10 -16
-5 -3 -10 -15 -10 -26 0 -23 -15 -25 -24 -3 -4 10 1 25 10 35 18 20 34 25 34
10z"/>
		<path d="M5352 3224 c-65 -32 -108 -84 -129 -153 -29 -101 -2 -205 72 -269 60
-53 93 -66 175 -66 65 -1 82 3 128 28 l53 30 99 -99 98 -98 -46 -48 c-92 -95
-155 -230 -169 -361 l-6 -58 -253 0 c-139 0 -254 4 -256 8 -1 5 -19 2 -38 -6
l-35 -14 33 -16 c26 -13 35 -13 41 -4 6 9 68 12 256 10 l249 -3 13 -83 c55
-355 396 -591 748 -517 155 33 308 137 395 269 174 268 112 649 -137 835 -70
53 -179 105 -251 120 -68 14 -206 14 -274 0 -52 -11 -167 -61 -220 -96 l-28
-18 -99 99 -99 98 29 55 c37 71 41 172 8 239 -23 49 -86 110 -135 130 -57 24
-162 18 -222 -12z m213 -13 c121 -54 176 -191 125 -309 -89 -206 -382 -186
-445 31 -26 91 9 192 87 250 66 49 161 61 233 28z m885 -526 c203 -74 352
-243 395 -450 19 -90 19 -138 -1 -233 -22 -107 -71 -205 -143 -284 -78 -85
-153 -134 -261 -171 -72 -26 -100 -30 -185 -30 -159 0 -288 51 -406 160 -128
119 -192 264 -193 438 0 68 6 119 18 160 59 200 213 356 411 418 76 24 92 26
195 22 72 -2 113 -10 170 -30z"/>
		<path d="M5423 3180 c-126 -29 -185 -199 -105 -299 103 -130 299 -93 341 65
26 97 -38 206 -136 233 -43 12 -54 12 -100 1z m96 -74 c18 -10 31 -28 39 -54
7 -22 19 -43 27 -46 33 -12 4 -96 -34 -96 -14 0 -24 57 -17 93 7 39 -1 52 -37
66 -21 8 -36 7 -63 -4 -34 -14 -34 -14 -28 -67 4 -38 2 -58 -9 -72 -13 -18
-14 -18 -35 0 -23 19 -32 84 -12 84 6 0 19 19 30 42 28 64 80 84 139 54z"/>
		<path d="M6140 2644 c-153 -33 -304 -150 -368 -284 -102 -214 -61 -461 103
-625 209 -209 551 -209 760 0 67 67 125 169 146 255 19 81 14 212 -10 291 -56
180 -217 324 -406 364 -85 18 -140 18 -225 -1z m424 -300 c12 -31 7 -369 -6
-382 -8 -8 -50 -12 -124 -12 l-111 0 5 -26 c3 -16 18 -34 40 -47 32 -19 33
-21 16 -34 -18 -13 -216 -19 -248 -7 -19 7 -21 34 -3 34 18 0 43 29 50 57 5
22 3 22 -112 25 l-116 3 -3 203 -2 202 304 0 c268 0 305 -2 310 -16z"/>
		<path d="M5970 2170 l0 -160 285 0 285 0 0 160 0 160 -285 0 -285 0 0 -160z"/>
		<path d="M3495 2970 l-20 -9 20 0 c11 0 27 4 35 9 13 9 13 10 0 9 -8 0 -24 -4
-35 -9z"/>
		<path d="M3570 2970 c-9 -6 -10 -10 -3 -10 6 0 15 5 18 10 8 12 4 12 -15 0z"/>
		<path d="M3547 2949 c7 -7 15 -10 18 -7 3 3 -2 9 -12 12 -14 6 -15 5 -6 -5z"/>
		<path d="M3938 2953 c7 -3 16 -2 19 1 4 3 -2 6 -13 5 -11 0 -14 -3 -6 -6z"/>
		<path d="M3335 2929 c-22 -10 -29 -16 -15 -13 28 7 80 33 65 33 -5 0 -28 -9
-50 -20z"/>
		<path d="M3865 2940 c3 -5 15 -10 26 -10 11 0 17 5 14 10 -3 6 -15 10 -26 10
-11 0 -17 -4 -14 -10z"/>
		<path d="M3425 2930 c3 -5 8 -10 11 -10 2 0 4 5 4 10 0 6 -5 10 -11 10 -5 0
-7 -4 -4 -10z"/>
		<path d="M3820 2930 c-12 -8 -9 -10 13 -10 16 0 26 4 22 10 -8 12 -16 12 -35
0z"/>
		<path d="M3477 2913 c-11 -10 -8 -33 3 -33 6 0 19 9 30 20 l20 20 -23 0 c-13
0 -27 -3 -30 -7z"/>
		<path d="M3914 2901 c10 -11 29 -22 43 -26 14 -3 32 -13 40 -20 8 -8 26 -18
41 -22 15 -3 29 -10 32 -14 3 -4 11 -5 18 0 8 5 -4 19 -37 44 -48 37 -96 57
-135 57 -18 0 -18 -1 -2 -19z"/>
		<path d="M3860 2906 c0 -2 9 -6 20 -9 11 -3 18 -1 14 4 -5 9 -34 13 -34 5z"/>
		<path d="M3650 2891 c0 -5 5 -13 10 -16 6 -3 10 -2 10 4 0 5 -4 13 -10 16 -5
3 -10 2 -10 -4z"/>
		<path d="M4030 2897 c0 -7 89 -67 99 -67 20 0 -7 39 -39 55 -26 14 -60 20 -60
12z"/>
		<path d="M3517 2883 c-11 -11 -8 -20 9 -27 8 -3 12 -2 9 4 -3 6 -1 10 5 10 6
0 8 5 5 10 -7 12 -19 13 -28 3z"/>
		<path d="M3225 2870 c-3 -6 1 -7 9 -4 18 7 21 14 7 14 -6 0 -13 -4 -16 -10z"/>
		<path d="M3695 2870 c4 -6 11 -8 16 -5 14 9 11 15 -7 15 -8 0 -12 -5 -9 -10z"/>
		<path d="M3800 2859 c0 -3 5 -20 11 -38 12 -34 30 -43 24 -11 -3 16 2 20 26
20 16 0 29 4 29 9 0 5 -9 7 -20 4 -13 -4 -20 0 -20 10 0 10 -9 14 -25 13 -14
0 -25 -4 -25 -7z"/>
		<path d="M3174 2838 c-47 -35 -51 -40 -19 -27 35 15 61 36 53 44 -3 3 -18 -5
-34 -17z"/>
		<path d="M3268 2843 c7 -3 16 -2 19 1 4 3 -2 6 -13 5 -11 0 -14 -3 -6 -6z"/>
		<path d="M3772 2841 c-11 -6 -9 -9 6 -13 15 -4 19 -2 15 8 -6 16 -4 16 -21 5z"/>
		<path d="M3660 2810 l-45 -19 93 0 c58 -1 92 3 92 10 0 5 -4 8 -9 4 -14 -8
-91 6 -85 16 3 5 4 9 2 8 -2 -1 -23 -9 -48 -19z"/>
		<path d="M4140 2812 c0 -4 18 -26 40 -47 23 -22 57 -64 77 -93 39 -56 38 -55
107 -28 l30 12 -37 40 c-33 34 -38 37 -47 22 -9 -15 -14 -15 -42 -4 -45 19
-110 77 -104 93 3 7 -1 13 -9 13 -8 0 -15 -4 -15 -8z"/>
		<path d="M3860 2806 c0 -2 15 -6 34 -8 19 -2 32 0 30 4 -5 8 -64 12 -64 4z"/>
		<path d="M4068 2803 c-15 -2 -34 -13 -41 -23 -11 -16 -15 -16 -32 -4 -34 25
-47 14 -22 -20 11 -15 17 -16 40 -5 25 11 29 10 62 -24 20 -21 42 -37 49 -37
17 0 46 -33 46 -53 0 -32 61 -43 103 -20 16 9 -146 195 -168 192 -5 -1 -22 -4
-37 -6z"/>
		<path d="M3825 2770 c3 -5 11 -10 16 -10 6 0 7 5 4 10 -3 6 -11 10 -16 10 -6
0 -7 -4 -4 -10z"/>
		<path d="M3620 2757 c8 -8 42 -20 75 -27 67 -14 115 -38 115 -57 0 -7 5 -13
10 -13 11 0 6 83 -6 101 -3 5 -51 9 -107 9 -85 0 -99 -2 -87 -13z"/>
		<path d="M3834 2734 c3 -8 6 -18 6 -20 0 -3 5 -2 10 1 15 9 12 22 -6 29 -12 5
-15 2 -10 -10z"/>
		<path d="M1010 2724 c-167 -44 -329 -174 -402 -324 -41 -83 -68 -199 -68 -287
1 -141 65 -309 159 -414 l50 -56 -98 -97 -97 -97 -54 28 c-45 23 -66 28 -125
28 -152 -1 -258 -108 -257 -262 1 -150 109 -256 262 -257 165 0 286 149 252
312 -6 30 -23 72 -36 92 l-24 37 99 99 99 99 28 -18 c262 -171 578 -149 796
54 110 104 178 235 194 377 l7 67 324 3 c248 2 326 -1 332 -10 6 -9 15 -9 41
4 l33 16 -35 14 c-19 8 -36 11 -38 6 -2 -4 -152 -8 -333 -8 l-329 0 0 38 c0
65 -29 162 -72 245 -79 151 -235 273 -399 312 -80 18 -237 18 -309 -1z m350
-38 c83 -29 191 -97 244 -156 218 -241 219 -586 2 -817 -189 -204 -459 -254
-705 -132 -171 84 -294 250 -327 439 -24 141 7 298 84 416 153 235 443 339
702 250z m-885 -1225 c156 -73 185 -282 54 -395 -145 -124 -373 -28 -387 163
-7 99 43 185 133 230 53 26 146 27 200 2z"/>
		<path d="M1050 2645 c-193 -44 -346 -189 -404 -384 -20 -69 -21 -208 -1 -286
47 -179 201 -333 380 -380 76 -19 204 -19 280 0 397 104 535 599 250 894 -69
72 -128 109 -221 141 -78 27 -202 34 -284 15z m358 -221 c22 -15 22 -17 22
-309 0 -254 -2 -296 -16 -309 -13 -14 -50 -16 -246 -16 -201 0 -234 2 -250 17
-17 15 -18 38 -18 305 0 275 1 289 20 308 19 19 33 20 243 20 185 0 226 -3
245 -16z"/>
		<path d="M960 2125 l0 -245 205 0 205 0 0 245 0 245 -205 0 -205 0 0 -245z"/>
		<path d="M1155 1840 c-3 -5 1 -10 10 -10 9 0 13 5 10 10 -3 6 -8 10 -10 10 -2
0 -7 -4 -10 -10z"/>
		<path d="M312 1429 c-81 -24 -146 -138 -125 -220 l9 -34 72 -3 c61 -2 71 -1
66 13 -3 8 -12 15 -19 15 -37 0 -59 88 -30 126 11 16 20 17 115 4 108 -14 126
-26 95 -60 -21 -23 -38 -16 -29 12 4 13 2 18 -4 14 -9 -5 -21 -57 -23 -97 0
-11 -8 -14 -29 -11 -24 3 -29 0 -32 -19 -3 -23 -8 -24 -80 -27 -43 -2 -78 -7
-78 -12 0 -14 61 -56 99 -69 156 -52 302 113 232 264 -43 92 -137 133 -239
104z"/>
		<path d="M4367 2705 c29 -36 38 -41 47 -26 6 10 -49 61 -65 61 -6 0 3 -16 18
-35z"/>
		<path d="M3005 2663 c-24 -5 -72 -72 -120 -171 -33 -66 -37 -92 -16 -92 4 0
18 26 31 57 13 31 47 92 76 135 28 43 51 77 50 77 0 -1 -10 -4 -21 -6z"/>
		<path d="M4416 2662 c-3 -5 8 -27 24 -49 35 -47 110 -192 110 -211 0 -7 5 -10
10 -7 26 16 -5 96 -83 213 -42 61 -51 70 -61 54z"/>
		<path d="M3050 2650 c8 -5 20 -10 25 -10 6 0 3 5 -5 10 -8 5 -19 10 -25 10 -5
0 -3 -5 5 -10z"/>
		<path d="M2986 2586 c-44 -66 -107 -196 -101 -207 9 -13 107 -42 114 -33 4 5
16 32 26 59 9 28 35 83 56 124 40 75 41 81 17 85 -7 1 -23 7 -35 14 -34 19
-39 16 -77 -42z"/>
		<path d="M4128 2629 c-19 -11 -24 -29 -8 -29 5 0 14 9 20 20 12 23 12 23 -12
9z"/>
		<path d="M4344 2624 l-41 -15 48 -92 c26 -51 53 -111 60 -134 14 -48 17 -49
82 -27 31 10 47 22 47 32 0 41 -121 253 -143 251 -7 0 -30 -7 -53 -15z"/>
		<path d="M4085 2623 c4 -9 -1 -13 -14 -13 -27 0 -27 -17 0 -25 30 -10 42 7 23
31 -8 10 -13 13 -9 7z"/>
		<path d="M3635 2589 c-143 -21 -283 -127 -352 -266 -34 -69 -38 -85 -41 -175
-5 -122 14 -203 67 -286 168 -259 525 -299 742 -83 92 93 139 205 139 336 0
136 -40 234 -137 336 -107 112 -257 162 -418 138z m117 -166 c24 -21 23 -48
-2 -73 l-20 -20 39 0 c64 0 71 -14 71 -145 0 -63 -4 -116 -9 -119 -5 -4 -16
-3 -25 0 -12 4 -16 26 -19 92 -1 48 -4 -13 -5 -134 -2 -187 -4 -223 -17 -228
-39 -15 -45 1 -47 133 l-2 126 -6 -124 c-4 -105 -8 -126 -23 -135 -15 -9 -21
-7 -33 8 -11 16 -14 65 -16 230 -1 116 -4 173 -5 126 -4 -91 -13 -111 -38 -90
-12 10 -15 35 -15 114 0 123 13 146 83 146 40 0 41 0 19 16 -12 8 -22 26 -22
39 0 49 55 72 92 38z"/>
		<path d="M4226 2585 c-11 -11 -26 -14 -57 -9 -39 7 -42 6 -35 -12 4 -10 25
-70 46 -133 22 -63 43 -118 49 -124 8 -8 111 3 164 19 23 7 22 16 -16 109 -63
152 -106 195 -151 150z"/>
		<path d="M3122 2577 c-17 -21 -63 -118 -88 -183 l-23 -63 47 -9 c26 -6 68 -13
94 -17 l47 -7 16 38 c15 36 15 39 -3 54 -40 33 -54 70 -50 127 4 44 2 56 -13
63 -11 7 -20 6 -27 -3z"/>
		<path d="M4078 2553 c-22 -5 -23 -19 -4 -26 8 -3 33 -29 55 -57 47 -59 48 -57
18 25 -22 59 -33 68 -69 58z"/>
		<path d="M2826 2329 c-24 -98 -33 -229 -16 -229 9 0 11 14 8 50 -3 28 -2 53 2
55 4 3 11 25 15 51 3 25 13 63 20 84 11 31 11 41 1 49 -10 8 -17 -5 -30 -60z"/>
		<path d="M4568 2385 c-7 -8 25 -135 35 -135 10 0 9 44 -4 96 -11 41 -18 51
-31 39z"/>
		<path d="M2876 2362 c-13 -21 -37 -142 -42 -211 l-6 -79 56 -21 c31 -12 58
-21 60 -21 2 0 6 30 10 68 3 37 14 102 23 145 9 42 14 79 12 80 -20 13 -110
44 -113 39z"/>
		<path d="M4505 2349 c-22 -10 -48 -20 -57 -22 -15 -4 -16 -9 -3 -57 8 -29 19
-95 26 -147 13 -104 8 -100 85 -68 24 10 32 20 37 48 8 51 -22 238 -42 258 -3
4 -24 -2 -46 -12z"/>
		<path d="M3007 2313 c-8 -13 -35 -162 -42 -229 l-6 -62 88 -16 c132 -24 120
-34 126 107 3 67 9 134 12 148 6 25 5 25 -67 37 -41 6 -81 14 -90 17 -9 4 -18
3 -21 -2z"/>
		<path d="M4322 2301 l-83 -15 8 -51 c4 -27 7 -94 7 -149 l-2 -98 54 6 c29 3
76 11 104 17 l50 11 0 52 c0 80 -33 247 -48 245 -4 -1 -44 -9 -90 -18z"/>
		<path d="M2802 2060 c0 -14 3 -45 7 -70 l8 -45 1 40 c0 22 -4 54 -8 70 -7 27
-8 28 -8 5z"/>
		<path d="M2833 1987 c8 -103 35 -205 59 -218 10 -6 36 -16 57 -24 l38 -13 -14
56 c-7 32 -16 95 -19 142 l-7 86 -60 21 -60 21 6 -71z"/>
		<path d="M4539 2037 l-57 -21 -6 -81 c-4 -44 -13 -108 -20 -142 l-13 -62 49
19 c28 10 53 21 55 24 19 19 68 289 52 285 -2 0 -29 -10 -60 -22z"/>
		<path d="M2964 1938 c10 -105 27 -187 42 -203 11 -11 183 -50 190 -42 1 1 -1
22 -6 47 -4 25 -11 87 -15 138 -6 83 -9 93 -29 97 -49 10 -179 35 -183 35 -3
0 -3 -33 1 -72z"/>
		<path d="M4370 1993 c-41 -8 -86 -16 -99 -19 -19 -4 -22 -9 -16 -27 4 -12 9
-34 12 -48 4 -20 14 -29 46 -40 23 -7 47 -14 53 -14 15 0 67 -28 76 -39 3 -5
9 22 12 60 4 38 8 86 10 107 3 24 0 37 -7 36 -7 -1 -46 -8 -87 -16z"/>
		<path d="M4612 1980 c0 -14 2 -19 5 -12 2 6 2 18 0 25 -3 6 -5 1 -5 -13z"/>
		<path d="M3194 1845 c3 -60 9 -120 12 -132 6 -23 16 -25 137 -39 l58 -6 -66
63 c-47 45 -77 85 -107 143 l-40 81 6 -110z"/>
		<path d="M4601 1924 c0 -11 3 -14 6 -6 3 7 2 16 -1 19 -3 4 -6 -2 -5 -13z"/>
		<path d="M2821 1914 c0 -11 3 -14 6 -6 3 7 2 16 -1 19 -3 4 -6 -2 -5 -13z"/>
		<path d="M4418 1754 c-13 -25 -14 -32 -3 -28 12 5 30 52 23 59 -2 2 -11 -12
-20 -31z"/>
		<path d="M2899 1721 c52 -112 110 -195 153 -217 16 -9 32 -13 34 -11 3 3 -11
33 -29 68 -19 35 -42 85 -52 110 -15 43 -22 49 -70 66 l-53 20 17 -36z"/>
		<path d="M4473 1730 c-24 -11 -43 -26 -43 -34 0 -8 -22 -57 -48 -110 -27 -53
-44 -96 -40 -96 27 0 72 37 106 88 36 53 92 154 92 167 0 9 -24 4 -67 -15z"/>
		<path d="M3010 1700 c0 -19 69 -161 95 -195 19 -25 36 -34 81 -43 98 -20 96
-22 63 61 -16 39 -33 90 -39 113 l-10 41 -72 12 c-40 7 -83 14 -95 18 -14 3
-23 1 -23 -7z"/>
		<path d="M4380 1689 c0 -37 -43 -100 -82 -120 -21 -11 -43 -29 -49 -42 -6 -12
-22 -34 -36 -48 l-24 -27 53 10 c63 11 84 31 132 133 49 101 52 115 27 115
-15 0 -21 -6 -21 -21z"/>
		<path d="M3226 1625 c7 -27 25 -80 40 -116 l26 -67 77 -6 c42 -4 100 -9 130
-13 53 -6 54 -5 48 19 -4 14 -10 56 -13 94 l-7 69 -56 26 c-41 19 -82 29 -157
35 l-101 9 13 -50z"/>
		<path d="M3896 1545 c-4 -36 -9 -79 -13 -95 -5 -27 -3 -30 19 -30 22 0 26 7
38 53 7 30 13 71 14 93 1 35 -2 39 -25 42 -25 3 -26 1 -33 -63z"/>
		<path d="M3540 1586 c0 -8 5 -49 11 -91 l12 -76 151 3 151 3 13 84 c7 46 11
85 10 86 -2 1 -39 -5 -82 -13 -65 -13 -93 -14 -155 -4 -42 6 -84 14 -93 17
-13 5 -18 2 -18 -9z"/>
		<path d="M3095 1445 c61 -55 145 -115 126 -92 -20 26 -4 20 37 -12 21 -16 56
-32 80 -36 l43 -7 -33 44 c-18 24 -40 54 -48 66 -10 15 -32 25 -70 32 -30 6
-64 13 -75 17 -15 4 -11 -5 18 -41 21 -25 34 -46 29 -46 -5 0 -26 22 -48 49
-25 32 -51 53 -74 59 l-35 11 50 -44z"/>
		<path d="M4330 1472 c-8 -4 -40 -34 -70 -66 l-55 -60 46 33 c80 56 131 116 79
93z"/>
		<path d="M4225 1445 c-70 -17 -95 -26 -95 -35 0 -4 -19 -31 -42 -60 l-42 -53
39 7 c22 4 54 16 70 26 34 22 144 131 130 129 -6 -1 -32 -7 -60 -14z"/>
		<path d="M1147 1400 c-10 -27 -11 -39 -4 -37 9 1 12 -57 12 -218 l0 -220 -57
-7 c-157 -20 -311 -162 -343 -318 -4 -19 -16 -45 -27 -57 -15 -15 -19 -29 -14
-47 7 -30 48 -45 71 -26 19 16 19 67 0 77 -13 8 -13 15 1 63 9 30 26 73 39 95
33 58 116 132 183 163 50 23 70 27 157 27 88 0 107 -3 158 -27 108 -51 197
-155 227 -267 10 -38 9 -46 -4 -53 -21 -12 -21 -62 0 -78 11 -10 23 -11 42 -4
34 12 42 54 14 81 -11 10 -22 34 -26 54 -27 149 -181 294 -336 316 l-55 8 -3
223 c-1 150 1 221 8 217 5 -3 10 -4 10 -2 0 8 -30 77 -34 77 -1 0 -10 -18 -19
-40z m-369 -893 c2 -12 -3 -17 -17 -17 -12 0 -21 6 -21 13 0 31 32 34 38 4z
m820 6 c5 -17 -26 -29 -40 -15 -6 6 -7 15 -3 22 9 14 37 9 43 -7z"/>
		<path d="M6240 1419 c0 -11 -5 -29 -10 -40 -7 -13 -7 -19 0 -19 6 0 10 -71 10
-208 l0 -208 -62 -12 c-82 -15 -161 -57 -219 -114 -50 -50 -104 -147 -115
-207 -4 -20 -16 -42 -26 -49 -23 -16 -21 -60 3 -75 9 -5 28 -7 42 -3 21 5 27
13 27 33 0 14 -7 34 -15 43 -12 13 -12 24 -4 56 42 150 166 265 319 294 186
36 384 -86 442 -273 16 -54 17 -62 3 -77 -8 -9 -15 -29 -15 -43 0 -20 6 -28
27 -33 14 -4 33 -2 42 3 24 15 26 59 3 75 -10 7 -22 31 -26 52 -12 63 -64 155
-117 207 -59 57 -134 96 -217 111 l-62 12 0 208 c0 137 4 208 10 208 7 0 7 6
0 19 -5 11 -10 29 -10 40 0 12 -7 21 -15 21 -8 0 -15 -9 -15 -21z m-370 -894
c0 -21 -19 -28 -36 -15 -10 9 -11 16 -3 26 12 15 39 8 39 -11z m809 -11 c-15
-18 -28 -18 -36 2 -8 20 17 36 34 22 10 -8 10 -14 2 -24z"/>
		<path d="M3310 1420 c0 -10 70 -99 92 -118 9 -7 54 -16 101 -19 l85 -6 -18 64
-17 64 -74 7 c-41 4 -95 9 -121 12 -27 3 -48 1 -48 -4z"/>
		<path d="M3570 1397 c0 -28 29 -110 42 -118 16 -11 189 -11 204 -1 10 6 44
102 44 124 0 4 -65 8 -145 8 -115 0 -145 -3 -145 -13z"/>
		<path d="M3858 1348 c-9 -35 -14 -65 -12 -67 9 -10 33 26 52 77 l20 52 -22 0
c-18 0 -24 -10 -38 -62z"/>
		<path d="M4027 1330 c-28 -27 -37 -40 -26 -40 15 0 79 62 79 75 0 11 -13 3
-53 -35z"/>
		<path d="M3352 1280 c10 -6 36 -17 59 -25 33 -12 39 -12 30 -2 -6 8 -9 16 -6
18 2 3 -4 5 -13 5 -9 0 -33 4 -52 8 -27 5 -31 4 -18 -4z"/>
		<path d="M4068 1283 c7 -3 16 -2 19 1 4 3 -2 6 -13 5 -11 0 -14 -3 -6 -6z"/>
		<path d="M4004 1265 c-22 -17 -38 -20 -29 -5 8 12 -5 13 -23 1 -10 -6 -8 -10
8 -14 24 -6 80 10 80 24 0 13 -14 11 -36 -6z"/>
		<path d="M3450 1266 c0 -14 87 -46 127 -46 36 0 41 3 36 18 -5 13 -1 12 19 -5
42 -39 178 -25 178 18 0 6 -43 10 -107 9 -60 0 -141 3 -180 6 -40 4 -73 4 -73
0z"/>
		<path d="M3820 1241 c-10 -20 -8 -21 37 -20 33 1 41 3 25 7 -13 4 -23 12 -22
17 2 19 -29 16 -40 -4z"/>
		<path d="M6199 840 c-186 -31 -307 -224 -254 -405 42 -146 160 -235 310 -235
126 0 240 71 295 185 33 69 35 198 4 266 -64 137 -206 213 -355 189z m-13
-205 c-4 -12 15 -15 122 -17 l127 -3 0 -110 0 -110 -180 0 -180 0 -3 108 c-2
101 -1 109 17 114 12 3 17 11 14 19 -4 11 6 14 42 14 37 0 46 -3 41 -15z"/>
		<path d="M6190 590 c0 -5 14 -10 30 -10 17 0 30 5 30 10 0 6 -13 10 -30 10
-16 0 -30 -4 -30 -10z"/>
		<path d="M6265 555 c-52 -51 -14 -139 59 -139 43 0 73 25 82 70 4 24 0 37 -21
62 -34 41 -84 44 -120 7z m105 -15 c27 -27 25 -56 -5 -85 -27 -28 -37 -30 -68
-14 -41 22 -49 58 -21 97 19 28 67 29 94 2z"/>
		<path d="M1058 805 c-158 -58 -245 -223 -204 -384 48 -188 237 -289 424 -227
68 23 144 92 179 164 24 49 28 69 28 142 0 73 -4 93 -28 142 -55 112 -166 179
-295 177 -37 0 -84 -7 -104 -14z m230 -127 c17 -17 17 -349 0 -366 -8 -8 -50
-12 -125 -12 -101 0 -113 2 -123 19 -6 11 -10 87 -10 176 0 89 4 165 10 176
10 17 22 19 123 19 75 0 117 -4 125 -12z"/>
		<path d="M1138 663 c12 -2 32 -2 45 0 12 2 2 4 -23 4 -25 0 -35 -2 -22 -4z"/>
		<path d="M1070 565 l0 -65 95 0 95 0 0 65 0 65 -95 0 -95 0 0 -65z"/>
		<path d="M1140 465 c0 -9 9 -15 25 -15 16 0 25 6 25 15 0 9 -9 15 -25 15 -16
0 -25 -6 -25 -15z"/>
		<path d="M1088 413 c6 -2 18 -2 25 0 6 3 1 5 -13 5 -14 0 -19 -2 -12 -5z"/>
		<path d="M1153 413 c9 -2 23 -2 30 0 6 3 -1 5 -18 5 -16 0 -22 -2 -12 -5z"/>
		<path d="M1218 413 c6 -2 18 -2 25 0 6 3 1 5 -13 5 -14 0 -19 -2 -12 -5z"/>
		<path d="M1088 383 c6 -2 18 -2 25 0 6 3 1 5 -13 5 -14 0 -19 -2 -12 -5z"/>
		<path d="M1153 383 c9 -2 23 -2 30 0 6 3 -1 5 -18 5 -16 0 -22 -2 -12 -5z"/>
		<path d="M1218 383 c6 -2 18 -2 25 0 6 3 1 5 -13 5 -14 0 -19 -2 -12 -5z"/>
		<path d="M1080 350 c0 -5 9 -10 20 -10 11 0 20 5 20 10 0 6 -9 10 -20 10 -11
0 -20 -4 -20 -10z"/>
		<path d="M1140 350 c0 -5 11 -10 25 -10 14 0 25 5 25 10 0 6 -11 10 -25 10
-14 0 -25 -4 -25 -10z"/>
		<path d="M1210 350 c0 -5 9 -10 20 -10 11 0 20 5 20 10 0 6 -9 10 -20 10 -11
0 -20 -4 -20 -10z"/>
	</g>
</svg>